<svg width="21.333328" height="18.668335" viewBox="0 0 21.3333 18.6683" fill="none" xmlns="http://www.w3.org/2000/svg" xmlns:xlink="http://www.w3.org/1999/xlink">
	<desc>
			Created with Pixso.
	</desc>
	<defs/>
	<path id="Vector" d="M20 8L4.18 8L9.02 2.18C9.25 1.91 9.36 1.56 9.32 1.21C9.29 0.85 9.12 0.53 8.85 0.3C8.58 0.08 8.22 -0.03 7.87 0C7.52 0.03 7.19 0.2 6.97 0.48L0.3 8.48C0.26 8.54 0.22 8.61 0.18 8.68C0.18 8.74 0.18 8.78 0.09 8.85C0.03 9 0 9.17 0 9.33C0 9.49 0.03 9.66 0.09 9.81C0.09 9.88 0.09 9.92 0.18 9.98C0.22 10.05 0.26 10.12 0.3 10.18L6.97 18.18C7.09 18.33 7.25 18.45 7.43 18.54C7.61 18.62 7.8 18.66 8 18.66C8.31 18.66 8.61 18.56 8.85 18.36C8.98 18.24 9.09 18.11 9.18 17.95C9.26 17.8 9.31 17.63 9.33 17.45C9.34 17.28 9.32 17.1 9.27 16.93C9.22 16.77 9.13 16.61 9.02 16.48L4.18 10.66L20 10.66C20.35 10.66 20.69 10.52 20.94 10.27C21.19 10.02 21.33 9.68 21.33 9.33C21.33 8.98 21.19 8.64 20.94 8.39C20.69 8.14 20.35 8 20 8Z" fill="#333333" fill-opacity="1.000000" fill-rule="nonzero"/>
</svg>
